<svg width="205" height="48" viewBox="0 0 205 48" fill="none" xmlns="http://www.w3.org/2000/svg">
<path d="M181.489 3.44531L171.723 9.90294V21.9129L181.489 16.5821L191.357 21.9369V9.93665L181.489 3.44531Z" fill="#BB8C58"/>
<path d="M181.489 19.1836L171.723 24.3169V36.3317L181.489 32.3204L191.357 36.3413V24.341L181.489 19.1836Z" fill="#BB8C58"/>
<path d="M164.967 39.0794L169.945 37.052V11.0723L164.967 14.3661V39.0794Z" fill="#02AAB5"/>
<path d="M159.035 41.436L163.413 39.6494V15.3262L159.035 18.2251V41.436Z" fill="#02AAB5"/>
<path d="M198.093 5.03516L193.125 8.6468V35.7101L198.093 33.9476V5.03516Z" fill="#02AAB5"/>
<path d="M204.021 0.724609L199.648 3.90286V33.398L204.016 31.8618L204.021 0.724609Z" fill="#02AAB5"/>
<path d="M191.357 38.8253L181.489 34.9922L158.957 43.6457V47.8593L181.489 40.2459L191.357 43.5445L204.015 39.4899V34.3613L191.357 38.8253Z" fill="#6D6E71"/>
<path d="M75.7986 34.7287C76.0729 34.3493 76.3143 33.9469 76.5198 33.5261C76.6983 33.2041 76.8019 32.8458 76.8227 32.478C76.8287 31.6657 76.7437 30.8552 76.5694 30.0619C76.425 29.3799 76.1879 28.7209 75.8646 28.1036C75.5959 27.5872 75.2205 27.134 74.7634 26.7741C74.3435 26.4515 73.828 26.2786 73.2988 26.2832C72.8435 26.2713 72.3921 26.3697 71.9829 26.57C71.6011 26.7732 71.2567 27.0399 70.9643 27.3589C70.6231 27.7204 70.3101 28.1077 70.0283 28.5173C69.7144 28.9641 69.3786 29.444 69.0041 29.9515C68.8125 30.2255 68.5929 30.4788 68.3489 30.7073C68.1265 30.911 67.8762 31.0819 67.6056 31.2148C67.301 31.3554 66.9787 31.4538 66.6476 31.5071C66.2483 31.5644 65.8451 31.5903 65.4417 31.5844C65.1854 31.6098 64.9266 31.5823 64.6813 31.5036C64.436 31.4248 64.2095 31.2965 64.0157 31.1265C63.7097 30.7162 63.563 30.2084 63.6027 29.6978V18.4941H63.5477L60.6956 20.149V30.8341C60.6905 31.5113 60.7626 32.1868 60.9103 32.8476C61.0406 33.4278 61.29 33.9745 61.6426 34.4528C62.0056 34.9205 62.4837 35.2855 63.0301 35.512C63.209 35.5816 63.3931 35.6369 63.5807 35.6775C64.1192 35.8232 64.6748 35.8955 65.2325 35.8926H65.5849C65.8272 35.8926 66.0694 35.8926 66.2952 35.854C66.6046 35.8199 66.9061 35.7342 67.1872 35.6002C67.5182 35.4455 67.8259 35.245 68.1012 35.0045C68.4666 34.6885 68.8004 34.3374 69.0977 33.9564C69.2606 34.427 69.5922 34.8203 70.0283 35.0596C70.5087 35.3376 71.0184 35.5614 71.5479 35.7271C72.457 35.8815 73.381 35.9278 74.3009 35.865C74.8813 35.6076 75.394 35.2186 75.7986 34.7287ZM73.0456 32.0367C72.7336 32.002 72.4257 31.9374 72.126 31.8436C71.9006 31.7793 71.6841 31.6866 71.4818 31.5678C71.4142 31.5353 71.3562 31.4856 71.3137 31.4236C71.2712 31.3617 71.2457 31.2897 71.2396 31.2148C71.2559 31.0979 71.2952 30.9854 71.3552 30.8838C71.443 30.7168 71.5482 30.5597 71.6691 30.4149C71.8063 30.2529 71.9679 30.1133 72.1481 30.0012C72.3285 29.8844 72.539 29.8231 72.7537 29.8247C72.9108 29.8449 73.0608 29.9025 73.1911 29.9927C73.3214 30.0829 73.4282 30.2031 73.5026 30.3432C73.8321 30.8876 74.0597 31.4877 74.1743 32.1139C73.8061 32.1087 73.4384 32.0829 73.0731 32.0367H73.0456Z" fill="#6D6E71"/>
<path d="M125.281 22.4925C125.038 22.5868 124.811 22.719 124.609 22.8842C124.309 23.1456 124.072 23.4719 123.916 23.8385C123.721 24.2971 123.588 24.7793 123.519 25.2727C123.431 25.8244 123.332 25.9678 123.233 26.7566C126.201 27.9537 128.364 30.2264 128.788 31.0814C128.355 31.2121 127.911 31.3062 127.461 31.3627C126.966 31.4289 126.459 31.4731 125.947 31.5007C125.435 31.5282 124.951 31.5448 124.494 31.5503C124.037 31.5558 123.662 31.5503 123.36 31.5503H122.809C122.415 31.5746 122.021 31.5066 121.658 31.3517C121.373 31.1588 121.165 30.8718 121.069 30.5408L119.929 27.6337L116.785 29.4486C116.967 29.8237 117.149 30.2264 117.336 30.6622C117.523 31.098 117.727 31.5724 117.887 32.0302C118.046 32.4881 118.206 32.9239 118.344 33.3431C118.481 33.7623 118.58 34.1375 118.646 34.4464C118.646 34.496 118.646 34.5401 118.608 34.5898C118.527 34.9452 118.391 35.2857 118.206 35.5993C117.983 35.9674 117.725 36.3129 117.435 36.6308C117.166 36.9297 116.865 37.1979 116.538 37.4307C116.296 37.613 116.029 37.758 115.745 37.861L114.478 37.7341L113.471 40.393L115.464 41.248C115.652 41.3303 115.845 41.4003 116.042 41.4576C116.191 41.4993 116.344 41.5234 116.499 41.5293C117.103 41.5107 117.69 41.3193 118.189 40.9777C118.832 40.5554 119.392 40.0188 119.841 39.3945C120.372 38.6516 120.79 37.8336 121.08 36.9673C121.247 36.4792 121.371 35.9771 121.449 35.4669C121.629 35.6183 121.845 35.7209 122.077 35.7648C122.335 35.8109 122.596 35.8404 122.858 35.853H123.238C123.894 35.853 124.56 35.853 125.243 35.8034C125.89 35.7749 126.536 35.7068 127.175 35.5993C127.738 35.5146 128.291 35.376 128.827 35.1856C129.247 35.0374 129.625 34.7895 129.928 34.4629C130.044 34.3085 130.203 34.0713 130.407 33.7403C130.611 33.4093 130.809 33.0563 131.002 32.6811C131.188 32.3242 131.352 31.9557 131.492 31.5779C131.609 31.2974 131.678 30.9989 131.696 30.6953C131.686 30.2123 131.6 29.734 131.442 29.2776C131.277 28.7259 130.203 27.0269 127.098 25.1072L133.078 23.3586V20.2363L125.281 22.4925Z" fill="#6D6E71"/>
<path d="M131.629 19.9946V18.4941L125.545 20.4966L125.396 21.9308L131.629 19.9946Z" fill="#6D6E71"/>
<path d="M42.0913 25.9615L38.8593 27.8315C39.0391 28.1651 39.1937 28.5118 39.3218 28.8686C39.443 29.2492 39.5641 29.6298 39.6742 30.0215C39.7843 30.4131 39.8724 30.7717 39.9385 31.1248C39.6669 31.2478 39.3825 31.3403 39.0906 31.4006C38.7914 31.469 38.4878 31.5169 38.1821 31.544C37.8903 31.544 37.6315 31.5771 37.4112 31.5771H36.8606C36.2837 31.5962 35.7125 31.457 35.2088 31.1744C34.973 31.0195 34.7722 30.8167 34.6195 30.5791C34.4668 30.3416 34.3656 30.0745 34.3224 29.7953C33.9314 28.2066 33.3808 25.6139 33.0615 24.9023L29.857 26.7613C30.527 28.1486 31.0688 29.5944 31.4758 31.0806C30.8748 31.2894 30.2524 31.43 29.6202 31.4999C29.1027 31.544 28.6952 31.5605 28.3924 31.5605C27.9712 31.5696 27.5499 31.5493 27.1315 31.4999C26.9154 31.4798 26.7056 31.416 26.5148 31.3123C26.4579 31.2791 26.4096 31.2328 26.3742 31.1771C26.3388 31.1215 26.3171 31.0581 26.3111 30.9924C26.3111 30.8655 26.3111 30.7221 26.3111 30.5511C26.3108 30.1711 26.3347 29.7916 26.3827 29.4147L24.2409 29.1609C24.1146 29.7228 24.0245 30.2921 23.9711 30.8655C23.916 31.4833 23.883 32.0625 23.883 32.6031C23.8802 33.0338 23.9152 33.4639 23.9876 33.8884C24.0467 34.2767 24.2213 34.6382 24.4886 34.9255C24.8289 35.2544 25.2479 35.49 25.7055 35.6095C26.4233 35.8013 27.1653 35.8868 27.9079 35.8633C28.4506 35.8683 28.9925 35.8221 29.5266 35.7254C29.9589 35.6449 30.3841 35.5305 30.7985 35.3834C31.1066 35.272 31.4034 35.1316 31.685 34.9641C31.8601 34.8596 32.0243 34.7376 32.175 34.6C32.353 34.3722 32.4891 34.1144 32.577 33.8388C32.8251 34.2597 33.1457 34.6332 33.524 34.942C33.8571 35.2022 34.2286 35.4087 34.6252 35.5544C34.9815 35.6826 35.3508 35.7714 35.7264 35.8191C36.0457 35.8522 36.3651 35.8633 36.69 35.8688H36.8661C37.2509 35.8647 37.6351 35.8389 38.0169 35.7916C38.4417 35.7312 38.8627 35.6465 39.2778 35.5378C39.6329 35.4451 39.9793 35.3214 40.3129 35.1682C40.5624 35.0584 40.7929 34.9094 40.9957 34.7269C41.2055 34.4893 41.39 34.2305 41.5463 33.9546C41.761 33.5905 41.9702 33.2044 42.1739 32.7907C42.3658 32.3999 42.5349 31.9984 42.6805 31.5881C42.7931 31.2968 42.86 30.9898 42.8787 30.6779C42.794 29.0811 42.5299 27.499 42.0913 25.9615Z" fill="#6D6E71"/>
<path d="M109.496 27.6504L106.352 29.4653C106.528 29.8404 106.715 30.2431 106.902 30.6789C107.09 31.1146 107.293 31.589 107.453 32.0469C107.613 32.5048 107.772 32.9405 107.91 33.3598C108.048 33.779 108.147 34.1541 108.213 34.463C108.138 34.872 107.986 35.2631 107.767 35.616C107.548 35.989 107.292 36.3384 107.001 36.6585C106.731 36.9561 106.43 37.2242 106.104 37.4584C105.861 37.642 105.592 37.7871 105.306 37.8887L104.045 37.7618L103.037 40.4207L105.03 41.2757C105.355 41.434 105.706 41.5294 106.065 41.557C106.67 41.5384 107.256 41.347 107.756 41.0054C108.398 40.5831 108.958 40.0465 109.408 39.4222C109.939 38.6793 110.356 37.8613 110.646 36.995C110.983 35.9834 111.149 34.9225 111.136 33.8563C111.109 32.9604 110.981 32.0705 110.757 31.2029C110.433 29.9866 110.011 28.7985 109.496 27.6504Z" fill="#6D6E71"/>
<path d="M59.0217 32.3007C58.9446 31.6387 58.829 30.9271 58.6803 30.1604C58.5259 29.3876 58.331 28.6234 58.0967 27.8711L54.9252 29.708C55.2226 30.9713 55.4758 32.1518 55.6355 33.233C55.7952 34.3142 55.9438 35.3733 56.0264 36.3717C55.2058 36.6736 54.3574 36.8935 53.4937 37.0282C52.5837 37.179 51.663 37.2546 50.7407 37.2544C50.0499 37.2642 49.3615 37.1712 48.6979 36.9785C48.4487 36.9092 48.207 36.815 47.9766 36.6972C47.8186 36.6274 47.6831 36.5147 47.5857 36.3717C47.4532 36.1578 47.3582 35.9227 47.3049 35.6767C47.2341 35.3487 47.2008 35.0137 47.2058 34.6782C47.2155 34.0936 47.2837 33.5115 47.4095 32.9406C47.5827 32.1304 47.8089 31.3325 48.0868 30.552L45.8293 29.7963C45.3899 30.7644 45.0397 31.7707 44.7832 32.8027C44.5024 33.8592 44.3581 34.9474 44.3537 36.0408C44.3495 36.7057 44.4252 37.3688 44.5794 38.0156C44.7254 38.6106 44.9833 39.1723 45.3393 39.6705C45.8161 40.2341 46.4254 40.6701 47.1122 40.9393C48.1858 41.3767 49.3402 41.5798 50.4984 41.535C51.297 41.5362 52.0944 41.4717 52.8825 41.3419C53.5971 41.2283 54.302 41.0604 54.9913 40.84C55.5611 40.6571 56.1139 40.4245 56.6431 40.1449C57.0304 39.9545 57.3809 39.6968 57.6782 39.3837C57.8197 39.1911 57.9467 38.9883 58.0582 38.7769C58.245 38.4309 58.4141 38.0755 58.5647 37.7122C58.7346 37.2996 58.8817 36.8778 59.0052 36.449C59.1263 36.0463 59.1893 35.6283 59.1924 35.2078C59.1924 34.921 59.1924 34.5293 59.1539 34.0218C59.1153 33.5143 59.0988 32.9571 59.0217 32.3007Z" fill="#6D6E71"/>
<path d="M22.1101 27.2808L18.9056 29.1509C19.0493 29.4275 19.1601 29.72 19.2359 30.0224C19.346 30.4086 19.4341 30.7727 19.5002 31.1257C19.2286 31.2488 18.9442 31.3413 18.6523 31.4015C18.3531 31.47 18.0495 31.5179 17.7438 31.5449C17.452 31.5449 17.1932 31.578 16.9785 31.578H15.8773C15.5678 31.5853 15.2597 31.5348 14.9688 31.4291C14.7013 31.318 14.4758 31.1249 14.3246 30.8775C14.1192 30.522 13.9828 30.1308 13.9226 29.7246C13.8131 29.09 13.7487 28.4485 13.7299 27.8049L12.7884 27.1484C12.254 27.378 11.7015 27.5625 11.1366 27.7001C10.586 27.8435 10.0023 27.9593 9.44623 28.0421C8.89012 28.1248 8.34503 28.1855 7.79443 28.2186C7.53014 28.2186 7.3154 28.2186 7.07865 28.2186C6.84189 28.2186 6.56108 28.2186 6.34084 28.2186L4.32013 30.7506C4.57341 31.3022 4.82118 31.9532 5.06895 32.6372C5.2821 33.2185 5.45503 33.8138 5.58652 34.4189C5.57227 34.4549 5.55571 34.4899 5.53696 34.5238C5.46086 34.8944 5.32114 35.2491 5.12401 35.5719C4.90308 35.9399 4.64674 36.2854 4.35867 36.6034C4.10003 36.9188 3.80838 37.2054 3.48872 37.4584C3.24621 37.6421 2.97694 37.7872 2.69035 37.8887L1.42948 37.7618L0.421875 40.4207C1.31385 40.8068 1.97457 41.0937 2.41505 41.2757C2.58455 41.3588 2.75928 41.4306 2.93812 41.4909C3.09306 41.5411 3.25436 41.569 3.41715 41.5736C4.02156 41.555 4.60806 41.3636 5.10749 41.022C5.74994 40.5997 6.30978 40.0631 6.7593 39.4388C7.76206 38.0434 8.33616 36.385 8.4111 34.6672C8.45095 34.404 8.47668 34.1388 8.48819 33.8728C8.47626 33.3569 8.42658 32.8425 8.33952 32.3338C8.58729 32.3338 8.89012 32.2786 9.15992 32.229L10.0299 32.08C10.3162 32.0249 10.5805 31.9697 10.8393 31.9035C11.098 31.8373 11.3018 31.7656 11.4669 31.6994C11.5783 32.3495 11.7479 32.9883 11.9735 33.608C12.1542 34.0776 12.4255 34.5069 12.7719 34.8713C13.1125 35.2143 13.5295 35.4715 13.9887 35.6215C14.5396 35.791 15.1139 35.8711 15.6901 35.8587H16.9509L17.5621 35.7704C17.9829 35.7157 18.4003 35.6365 18.812 35.5332C19.1671 35.4405 19.5135 35.3169 19.8471 35.1637C20.0966 35.0538 20.3271 34.9048 20.5298 34.7223C20.7396 34.4848 20.9242 34.2259 21.0804 33.9501C21.2952 33.586 21.5099 33.1998 21.7081 32.7861C21.8979 32.3971 22.0652 31.9974 22.2092 31.5891C22.323 31.2979 22.3917 30.9909 22.4129 30.6789C22.4239 29.6694 22.4404 28.0972 22.1101 27.2808Z" fill="#6D6E71"/>
<path d="M81.6741 18.498C81.6307 18.5093 81.5884 18.524 81.5475 18.5422C81.3586 18.6356 81.1857 18.7585 81.0354 18.9063C80.8759 19.0767 80.7321 19.2614 80.6059 19.4579C80.452 19.6939 80.3123 19.9389 80.1875 20.1916C80.0619 20.4451 79.9534 20.7068 79.8626 20.9749C79.7823 21.1924 79.7377 21.4216 79.7305 21.6534C79.7429 21.9694 79.7741 22.2844 79.8241 22.5967C79.8791 22.9938 79.9782 23.4738 80.0994 23.9978L81.9164 22.9497C81.8503 22.707 81.7842 22.4477 81.7016 22.1112C81.6226 21.8345 81.5764 21.5493 81.564 21.2617H87.2737V18.5036H81.6741V18.498Z" fill="#6D6E71"/>
<path d="M103.455 35.7383C103.48 35.14 103.345 34.5459 103.064 34.0172C102.659 33.4856 102.07 33.1255 101.412 33.0077L99.9698 32.6271C99.5843 32.5278 99.2595 32.4395 99.0007 32.3623C98.7419 32.285 98.5327 32.2188 98.3785 32.1582C98.2425 32.1082 98.1159 32.0354 98.0041 31.943C98.3085 31.2763 98.7717 30.6948 99.3531 30.2495C99.6939 29.9914 100.1 29.8346 100.526 29.7972C100.755 29.8058 100.979 29.8661 101.181 29.9737C101.468 30.1091 101.747 30.2601 102.018 30.426L103.807 27.8941C103.328 27.3407 102.772 26.8595 102.156 26.4653C101.697 26.1735 101.168 26.0132 100.625 26.002C99.9424 26.0276 99.2845 26.2647 98.7419 26.6805C98.0759 27.1616 97.4872 27.742 96.9965 28.4016C96.4717 29.1038 96.0438 29.8739 95.7246 30.6908C95.41 31.4503 95.2418 32.2627 95.2291 33.0849C95.2288 33.3303 95.2453 33.5755 95.2787 33.8186C95.3176 34.061 95.4077 34.2923 95.5429 34.4971C95.713 34.7437 95.9324 34.9522 96.1871 35.1094C96.5595 35.3291 96.9594 35.4979 97.3764 35.6114C98.0151 35.7989 98.5933 35.9589 99.1053 36.0913C99.6174 36.2237 100.096 36.3616 100.531 36.4995C100.14 36.6618 99.7346 36.7874 99.3201 36.8746C98.8529 36.9801 98.3806 37.0611 97.905 37.1173C97.4205 37.178 96.9305 37.2166 96.4404 37.2332C95.9504 37.2497 95.5099 37.2332 95.1025 37.2332C94.7342 37.2357 94.3661 37.2117 94.0013 37.1615C93.6817 37.1129 93.3654 37.0448 93.0542 36.9574C92.8053 36.887 92.5638 36.7928 92.3329 36.676C92.1748 36.6062 92.0394 36.4935 91.942 36.3506C91.8141 36.1349 91.7212 35.9003 91.6667 35.6555C91.5909 35.3283 91.5558 34.9929 91.5621 34.6571C91.5718 34.0725 91.64 33.4903 91.7658 32.9194C91.9412 32.1092 92.1693 31.3113 92.4486 30.5309L90.1746 29.7751C89.7319 30.7436 89.3763 31.7498 89.1119 32.7815C88.8329 33.8383 88.6904 34.9265 88.688 36.0196C88.6808 36.6847 88.7567 37.3481 88.9137 37.9944C89.0554 38.5899 89.3116 39.152 89.668 39.6493C90.1541 40.2275 90.7796 40.6718 91.485 40.9402C92.5621 41.3875 93.7224 41.5981 94.8877 41.558C95.6448 41.5587 96.4004 41.4904 97.1452 41.3539C97.8642 41.2217 98.5727 41.0373 99.265 40.8022C99.8841 40.6009 100.485 40.3462 101.06 40.041C101.525 39.7997 101.953 39.4932 102.332 39.1308C102.467 38.9629 102.578 38.7773 102.662 38.5792C102.806 38.2795 102.933 37.9719 103.042 37.6579C103.158 37.3104 103.257 36.9574 103.345 36.6043C103.412 36.3204 103.449 36.03 103.455 35.7383Z" fill="#6D6E71"/>
<path d="M136.234 27.6504L133.096 29.4653C133.272 29.8404 133.459 30.2431 133.646 30.6789C133.833 31.1146 134.032 31.589 134.197 32.0469C134.362 32.5048 134.516 32.9405 134.654 33.3598C134.792 33.779 134.885 34.1541 134.957 34.463C134.88 34.8714 134.729 35.2622 134.511 35.616C134.29 35.984 134.033 36.3295 133.745 36.6475C133.486 36.9472 133.196 37.2189 132.881 37.4584C132.638 37.642 132.369 37.7871 132.083 37.8887L130.822 37.7618L129.809 40.4207C130.706 40.8068 131.367 41.0937 131.807 41.2757C132.131 41.4346 132.483 41.5301 132.842 41.557C133.447 41.5384 134.033 41.347 134.533 41.0054C135.175 40.5831 135.735 40.0465 136.185 39.4222C136.716 38.6793 137.133 37.8613 137.423 36.995C137.76 35.9834 137.926 34.9225 137.913 33.8563C137.886 32.9604 137.758 32.0705 137.534 31.2029C137.199 29.9848 136.765 28.7965 136.234 27.6504Z" fill="#6D6E71"/>
<path d="M81.355 27.6504L78.2166 29.4653C78.3928 29.8404 78.58 30.2431 78.7672 30.6789C78.9544 31.1146 79.1526 31.589 79.3178 32.0469C79.483 32.5048 79.6372 32.9405 79.7693 33.3598C79.89 33.7218 79.9911 34.0901 80.0721 34.463C79.9972 34.8712 79.8478 35.262 79.6316 35.616C79.4106 35.9853 79.1523 36.331 78.8608 36.6475C78.5919 36.9464 78.2909 37.2146 77.9633 37.4474C77.7233 37.6318 77.4557 37.777 77.1705 37.8776L75.9096 37.7508L74.8965 40.4096C75.7885 40.7958 76.4547 41.0826 76.8952 41.2647C77.2192 41.4236 77.5705 41.519 77.9303 41.546C78.5346 41.5264 79.1208 41.3351 79.6206 40.9944C80.2631 40.5721 80.8229 40.0355 81.2724 39.4112C81.8038 38.6693 82.2196 37.8509 82.5058 36.984C82.8468 35.9733 83.0144 34.912 83.0013 33.8452C82.9734 32.9494 82.846 32.0594 82.6214 31.1919C82.2947 29.9793 81.8712 28.795 81.355 27.6504Z" fill="#6D6E71"/>
<path d="M84.5039 35.8529V35.8639L87.2569 34.2642V22.7461H84.5039V35.8529Z" fill="#6D6E71"/>
<path d="M152.801 18.5488L146.832 20.6285C146.417 20.7276 146.028 20.9158 145.693 21.1801C145.392 21.4469 145.153 21.7764 144.993 22.1455C144.797 22.6057 144.662 23.0897 144.591 23.5852C144.498 24.1369 144.404 24.8429 144.3 25.6373C147.267 26.8288 149.437 30.2269 149.855 31.0819C149.422 31.2137 148.978 31.3079 148.528 31.3632C148.033 31.4294 147.532 31.4736 147.014 31.5011C146.496 31.5287 146.017 31.5453 145.566 31.5508C145.114 31.5563 144.729 31.5508 144.426 31.5508H144.112C143.848 31.5805 143.58 31.5547 143.326 31.4749C143.072 31.3951 142.837 31.2631 142.637 31.0874C142.327 30.679 142.178 30.1703 142.218 29.6587V18.5599L139.317 20.2148V30.8061C139.312 31.4832 139.384 32.1587 139.531 32.8195C139.657 33.4013 139.907 33.949 140.264 34.4248C140.626 34.8932 141.104 35.2583 141.651 35.4839C141.831 35.5521 142.015 35.6074 142.202 35.6494C142.74 35.7944 143.296 35.8667 143.854 35.8646H144.613C145.164 35.8646 145.715 35.8646 146.304 35.8204C146.952 35.792 147.597 35.7238 148.236 35.6163C148.799 35.5309 149.352 35.3924 149.888 35.2026C150.308 35.0545 150.686 34.8065 150.989 34.48C151.105 34.3255 151.265 34.0883 151.468 33.7573C151.672 33.4263 151.865 33.0733 152.063 32.6982C152.247 32.3402 152.411 31.9718 152.553 31.5949C152.668 31.3136 152.737 31.0156 152.757 30.7123C152.744 30.2297 152.659 29.7517 152.504 29.2946C151.689 27.0915 150.159 25.2264 148.159 23.999L152.79 22.2503L152.801 18.5488Z" fill="#6D6E71"/>
<path d="M119.776 21.9961H116.803V24.9749H119.776V21.9961Z" fill="#6D6E71"/>
<path d="M53.2623 24.125H50.2891V27.1038H53.2623V24.125Z" fill="#6D6E71"/>
<path d="M42.4771 20.6562H39.5039V23.6351H42.4771V20.6562Z" fill="#6D6E71"/>
<path d="M39.0846 20.6562H36.1113V23.6351H39.0846V20.6562Z" fill="#6D6E71"/>
<path d="M22.3346 38.5781H19.3613V41.5569H22.3346V38.5781Z" fill="#6D6E71"/>
<path d="M115.355 18.4941L112.602 20.0884V35.854V35.865L115.355 34.2653V18.4941Z" fill="#6D6E71"/>
<path d="M5.58616 22.1837C5.55863 21.9465 5.52009 21.6983 5.46503 21.428C5.40997 21.1577 5.33839 20.8763 5.25029 20.584L4.14909 21.2515C4.2537 21.7038 4.33629 22.123 4.40237 22.5147C4.46844 22.9064 4.50698 23.2704 4.54002 23.618C4.24974 23.7276 3.949 23.807 3.64254 23.8552C3.32187 23.9049 2.99796 23.9307 2.67348 23.9324C2.54444 23.9348 2.41545 23.9256 2.28806 23.9048C2.17417 23.8911 2.06175 23.8671 1.95219 23.8331C1.86475 23.8107 1.77988 23.7793 1.69891 23.7393C1.64162 23.7141 1.59353 23.6717 1.56126 23.618C1.51227 23.5446 1.47856 23.462 1.46216 23.3752C1.43361 23.2598 1.42064 23.1411 1.42361 23.0222C1.42938 22.8164 1.45333 22.6115 1.49519 22.4099C1.55689 22.1234 1.63783 21.8414 1.73746 21.5659L0.933578 21.2956C0.77661 21.6383 0.651284 21.9947 0.559169 22.3602C0.461788 22.7331 0.411838 23.1167 0.410507 23.5021C0.406787 23.738 0.432685 23.9733 0.487591 24.2027C0.530354 24.4156 0.614545 24.6181 0.735362 24.7984C0.904702 25.0032 1.12233 25.1625 1.36855 25.2618C1.74768 25.4151 2.15481 25.4865 2.56336 25.4714C3.10184 25.4749 3.63733 25.3911 4.14909 25.2232C4.35238 25.1603 4.54957 25.079 4.73823 24.9805C4.87554 24.9119 5.00027 24.8205 5.10714 24.7102C5.15537 24.6411 5.1995 24.5693 5.23928 24.4951C5.30763 24.3748 5.36654 24.2494 5.41547 24.1199C5.47772 23.9744 5.53104 23.8252 5.57515 23.6731C5.617 23.5316 5.63923 23.3849 5.64122 23.2373C5.64122 23.1325 5.64122 22.9946 5.64122 22.8126C5.64122 22.6305 5.61369 22.432 5.58616 22.1837Z" fill="#6D6E71"/>
<path d="M3.06461 21.4939L3.68129 20.49C3.53228 20.3479 3.37003 20.2204 3.19676 20.1094C3.00624 19.9839 2.80327 19.8785 2.5911 19.7949L2.00195 20.821L2.55255 21.1575C2.76178 21.2788 2.93798 21.3891 3.06461 21.4939Z" fill="#6D6E71"/>
<path d="M14.2688 20.5293C14.0265 20.4521 13.8338 20.3969 13.7181 20.3638C13.5992 20.3338 13.4773 20.3172 13.3548 20.3142C13.2397 20.3186 13.1278 20.3528 13.0299 20.4135C12.9137 20.4831 12.8048 20.5644 12.705 20.6562C12.6095 20.7444 12.5194 20.8383 12.4352 20.9375C12.3766 21.0065 12.3267 21.0825 12.2866 21.1637C12.253 21.239 12.2307 21.319 12.2205 21.4009C12.2205 21.5057 12.1765 21.616 12.1544 21.7429C12.1324 21.8698 12.1159 21.9911 12.1049 22.118C12.0939 22.2449 12.0718 22.3552 12.0608 22.46L13.0684 22.1842C13.0684 22.096 13.0684 22.0022 13.1015 21.8974C13.1083 21.8125 13.1268 21.7289 13.1565 21.6491C13.3426 21.6563 13.5272 21.684 13.7071 21.7319C13.9329 21.7815 14.2577 21.8753 14.6817 22.0077L14.3403 22.1952L13.9274 22.4104C13.7683 22.4886 13.5999 22.546 13.4263 22.5814C13.2668 22.6135 13.1045 22.6301 12.9418 22.631H10.9431C10.9817 22.5207 11.0092 22.4104 11.0367 22.3166C11.059 22.245 11.0719 22.1709 11.0753 22.096C11.0739 21.903 11.0247 21.7135 10.9321 21.5443C10.8306 21.3557 10.7047 21.1814 10.5577 21.0258C10.411 20.8718 10.2443 20.7382 10.0622 20.6286C9.91199 20.5323 9.73922 20.4771 9.56111 20.4686C9.43544 20.4783 9.31688 20.5309 9.22524 20.6176C9.09097 20.7385 8.97913 20.8823 8.89488 21.0423C8.77131 21.2594 8.67514 21.491 8.60857 21.7319C8.52622 22.0334 8.47094 22.3417 8.44339 22.6531H7.83773C7.74386 22.6632 7.6489 22.6538 7.55887 22.6253C7.46884 22.5968 7.38568 22.5499 7.31465 22.4876C7.20469 22.3445 7.1517 22.1656 7.16599 21.9856L7.11093 18.4883L6.13086 19.3819C6.13086 19.3819 6.13086 22.0463 6.13086 22.3883C6.14066 22.6271 6.17761 22.864 6.24098 23.0944C6.28728 23.2946 6.37549 23.4826 6.49976 23.646C6.6262 23.8132 6.79557 23.9429 6.9898 24.0211C7.23777 24.1219 7.50424 24.1689 7.77165 24.1591H8.49294C8.53101 24.4491 8.6069 24.7328 8.71869 25.0031C8.80595 25.2085 8.9311 25.3957 9.08759 25.5547C9.22373 25.7011 9.38872 25.8175 9.57212 25.8967C9.74722 25.9674 9.93394 26.0048 10.1227 26.007C10.2309 25.9928 10.3325 25.9468 10.4145 25.8746C10.5413 25.7741 10.6542 25.6572 10.7504 25.5271C10.8629 25.3839 10.9589 25.2285 11.0367 25.0637C11.1095 24.9121 11.1489 24.7465 11.1523 24.5783C11.1542 24.4202 11.1102 24.265 11.0257 24.1315H12.8097C13.0766 24.1374 13.3416 24.0847 13.586 23.977C13.8172 23.8748 14.0354 23.7452 14.2357 23.5909L14.9625 23.0392C15.1218 22.9213 15.2913 22.8179 15.4691 22.7303C15.589 22.6663 15.7167 22.6181 15.849 22.5869C15.9644 22.5596 16.0828 22.5466 16.2014 22.5483L16.6969 21.263L15.2268 20.7555L14.2688 20.5293ZM9.42346 22.0518C9.48953 21.9084 9.54459 21.8312 9.57763 21.8312C9.63423 21.8377 9.68872 21.8565 9.7373 21.8863C9.80489 21.9253 9.86933 21.9696 9.93001 22.0187L10.0952 22.1842C10.143 22.2396 10.1837 22.3007 10.2163 22.3663C10.1205 22.5011 9.9766 22.5939 9.81438 22.6255C9.63431 22.6735 9.44983 22.7031 9.26378 22.7138C9.27962 22.4768 9.33354 22.244 9.42346 22.0242V22.0518ZM10.2108 24.7107C10.1686 24.7899 10.1147 24.8625 10.0511 24.9258C9.90561 24.8938 9.76974 24.8276 9.65471 24.7328C9.4887 24.5879 9.37139 24.3953 9.31884 24.1811H9.97956C10.0277 24.1739 10.0768 24.1811 10.1208 24.2017C10.1649 24.2223 10.2019 24.2554 10.2273 24.297C10.2649 24.3549 10.2876 24.4212 10.2934 24.49C10.2796 24.5595 10.2515 24.6252 10.2108 24.6831V24.7107Z" fill="#6D6E71"/>
<path d="M32.9508 21.2126C32.8719 20.8329 32.7519 20.463 32.5929 20.1094L31.4917 20.9589C31.5467 21.0692 31.6018 21.1851 31.6513 21.3119L31.7945 21.7091C31.8386 21.8415 31.8771 21.9794 31.9156 22.1118C31.9542 22.2442 31.9872 22.3766 32.0092 22.4979C31.915 22.5442 31.815 22.5775 31.7119 22.5972L31.3926 22.6469H31.1173H30.2363L30.2914 22.5145C30.3409 22.3766 30.385 22.2497 30.418 22.1339C30.4436 22.0551 30.4602 21.9737 30.4676 21.8911C30.4623 21.7148 30.4191 21.5417 30.3409 21.3836C30.257 21.2 30.1476 21.0292 30.0161 20.8761C29.8893 20.721 29.7387 20.5869 29.5701 20.479C29.4268 20.3818 29.2585 20.3281 29.0855 20.3245C28.9106 20.3317 28.7411 20.3871 28.5955 20.4845C28.4193 20.6022 28.2632 20.7474 28.133 20.9148C27.9892 21.1026 27.8742 21.3108 27.7916 21.5326C27.7225 21.7649 27.6963 22.008 27.7145 22.2497C27.7145 22.3049 27.7145 22.3655 27.7145 22.4373C27.7212 22.5115 27.7398 22.5841 27.7696 22.6524H27.219C27.1255 22.6579 27.0317 22.6579 26.9382 22.6524C26.8466 22.6444 26.7571 22.6201 26.6739 22.5807C26.5926 22.5471 26.5222 22.4918 26.4702 22.4207C26.415 22.3343 26.3811 22.236 26.3711 22.1339L26.2389 20.7493L25.0827 21.3285L25.2038 22.6083C25.1321 22.6318 25.0584 22.6484 24.9836 22.6579H24.7688C24.7029 22.6649 24.6365 22.6649 24.5706 22.6579C24.4979 22.6473 24.4284 22.6209 24.3669 22.5807V21.3561H23.4309L23.3097 22.3435C23.2657 22.5476 23.073 22.6524 22.7261 22.6524C22.6426 22.6561 22.559 22.6468 22.4783 22.6248C22.4146 22.608 22.356 22.5758 22.3076 22.531C22.2553 22.4761 22.2158 22.4101 22.192 22.338C22.1568 22.2368 22.1274 22.1336 22.1039 22.0291L21.8782 21.0471L20.777 21.7146C20.8816 22.167 20.9697 22.5862 21.0302 22.9779C21.0908 23.3695 21.1404 23.7336 21.1679 24.0811C20.8766 24.1863 20.5761 24.2638 20.2704 24.3128C19.9497 24.3625 19.6258 24.3883 19.3014 24.39C19.1731 24.4016 19.0442 24.4016 18.9159 24.39C18.802 24.3764 18.6896 24.3524 18.5801 24.3183C18.4929 24.295 18.4081 24.2636 18.3268 24.2245C18.2713 24.1992 18.2237 24.1591 18.1891 24.1087C18.1411 24.0328 18.1075 23.9486 18.09 23.8605C18.0642 23.7446 18.0513 23.6262 18.0515 23.5074C18.0573 23.3016 18.0812 23.0967 18.1231 22.8951C18.1829 22.6021 18.2601 22.3129 18.3543 22.0291L17.5504 21.7588C17.3967 22.1028 17.2715 22.4588 17.176 22.8234C17.0787 23.1962 17.0287 23.5799 17.0274 23.9653C17.0264 24.201 17.0522 24.436 17.1045 24.6658C17.1592 24.865 17.2507 25.0521 17.3743 25.2175C17.5436 25.4223 17.7612 25.5815 18.0074 25.6809C18.3866 25.8341 18.7937 25.9055 19.2022 25.8905C19.4844 25.8912 19.7661 25.8691 20.0447 25.8243C20.2982 25.7812 20.5484 25.7204 20.7935 25.6422C20.9964 25.5783 21.1935 25.4971 21.3826 25.3995C21.5175 25.3296 21.6402 25.2383 21.746 25.1292C21.8252 25.0303 21.8901 24.9208 21.9387 24.8038C22.0158 24.6328 22.0874 24.4562 22.148 24.2797C22.1592 24.2397 22.1683 24.1992 22.1755 24.1583L22.2085 24.048C22.2749 24.0955 22.3529 24.1241 22.4343 24.1308C22.5168 24.1366 22.5996 24.1366 22.682 24.1308C22.8683 24.1306 23.0536 24.1046 23.2327 24.0535C23.4223 23.9919 23.5892 23.8747 23.7117 23.717C23.8334 23.8632 23.9909 23.9753 24.1687 24.0425C24.3319 24.0982 24.5028 24.128 24.6752 24.1308C24.8496 24.1293 25.0225 24.0995 25.1873 24.0425C25.3279 23.9936 25.4571 23.9167 25.5672 23.8163C25.5866 23.7945 25.6032 23.7705 25.6168 23.7446C25.6531 23.6906 25.6844 23.6334 25.7104 23.5736C25.7862 23.6937 25.8878 23.7955 26.0077 23.8715C26.1225 23.9433 26.2466 23.999 26.3766 24.037C26.5082 24.0738 26.6426 24.0997 26.7785 24.1142H27.1695H27.3071C27.6262 24.1361 27.9466 24.1324 28.2651 24.1032C28.5043 24.0726 28.7239 23.9548 28.8818 23.7722C29.0637 23.9633 29.3079 24.0826 29.5701 24.1087C29.9461 24.1582 30.3251 24.1803 30.7043 24.1749H30.8805C31.0371 24.1747 31.1935 24.1636 31.3485 24.1418C31.5082 24.1418 31.6513 24.0922 31.789 24.0591C31.9151 24.0243 32.0384 23.98 32.1579 23.9267C32.2457 23.8903 32.326 23.838 32.3947 23.7722C32.4718 23.6888 32.5384 23.5962 32.5929 23.4964C32.6739 23.3646 32.7475 23.2283 32.8131 23.0882C32.881 22.9498 32.9416 22.8081 32.9948 22.6634C33.0361 22.5615 33.0603 22.4534 33.0664 22.3435C33.0695 21.9634 33.0307 21.5842 32.9508 21.2126ZM29.3058 22.4704C29.2037 22.5544 29.0951 22.63 28.9809 22.6965C28.8557 22.6173 28.7472 22.5142 28.6616 22.3931C28.6135 22.3249 28.5849 22.2448 28.579 22.1614C28.5776 22.0957 28.5907 22.0305 28.6173 21.9704C28.644 21.9104 28.6835 21.8569 28.7332 21.8139C28.8116 21.7315 28.9173 21.6805 29.0305 21.6705C29.0833 21.6755 29.1333 21.6967 29.1736 21.7312C29.2309 21.7723 29.2843 21.8184 29.3333 21.8691C29.3835 21.9225 29.4295 21.9796 29.471 22.0401C29.5043 22.093 29.5338 22.1483 29.5591 22.2056C29.485 22.3032 29.4 22.392 29.3058 22.4704Z" fill="#6D6E71"/>
<path d="M13.8066 24.8984H12.832V25.8748H13.8066V24.8984Z" fill="#6D6E71"/>
<path d="M23.5253 19.5312H22.5508V20.5076H23.5253V19.5312Z" fill="#6D6E71"/>
<path d="M24.6367 19.5312H23.6621V20.5076H24.6367V19.5312Z" fill="#6D6E71"/>
<path d="M24.08 18.4492H23.1055V19.4256H24.08V18.4492Z" fill="#6D6E71"/>
<path d="M28.7988 18.4492H27.8242V19.4256H28.7988V18.4492Z" fill="#6D6E71"/>
<path d="M29.9121 18.4492H28.9375V19.4256H29.9121V18.4492Z" fill="#6D6E71"/>
<path d="M32.3886 18.4492H31.4141V19.4256H32.3886V18.4492Z" fill="#6D6E71"/>
<path d="M16.4596 38.5781H13.4863V41.5569H16.4596V38.5781Z" fill="#6D6E71"/>
<path d="M13.069 38.5781H10.0957V41.5569H13.069V38.5781Z" fill="#6D6E71"/>
</svg>
